<?xml version="1.0" standalone="no"?>
<!DOCTYPE svg PUBLIC "-//W3C//DTD SVG 20010904//EN"
 "http://www.w3.org/TR/2001/REC-SVG-20010904/DTD/svg10.dtd">
<svg version="1.0" xmlns="http://www.w3.org/2000/svg"
 width="182.000000pt" height="182.000000pt" viewBox="0 0 182.000000 182.000000"
 preserveAspectRatio="xMidYMid meet">

<g transform="translate(0.000000,182.000000) scale(0.100000,-0.100000)"
fill="#000000" stroke="none">
<path d="M750 1809 c-388 -50 -609 -226 -704 -561 -31 -107 -50 -280 -43 -373
17 -196 158 -517 292 -663 113 -124 237 -181 441 -203 205 -22 368 5 551 91
353 165 526 424 527 790 0 111 -3 134 -27 203 -65 186 -174 366 -291 483 -196
194 -445 272 -746 233z m53 -361 c-4 -7 -6 -23 -4 -35 1 -13 -1 -23 -6 -23
-10 0 -16 48 -7 61 3 5 10 9 15 9 6 0 7 -6 2 -12z m31 -49 c-9 -16 -20 -10
-21 12 -2 17 1 18 12 9 8 -7 12 -16 9 -21z m157 -64 c37 -31 73 -63 81 -72 13
-18 -35 16 -108 74 -23 18 -47 33 -54 33 -6 0 -29 -13 -50 -30 -37 -29 -66
-42 -42 -18 18 18 15 28 -8 28 -15 0 -20 -7 -20 -30 0 -28 -42 -80 -65 -80 -5
0 2 10 17 23 20 16 28 33 30 62 3 36 6 40 32 43 16 2 32 -1 36 -8 5 -7 14 -5
31 9 13 11 30 20 38 21 8 0 44 -25 82 -55z m-10 -30 c38 -31 69 -58 69 -61 0
-2 -32 19 -70 47 l-70 51 -71 -57 c-39 -31 -73 -54 -76 -51 -3 3 5 14 18 25
13 10 47 37 74 59 28 23 52 41 54 42 2 0 35 -25 72 -55z m-441 -227 c51 -26
75 -67 83 -140 l5 -48 -74 0 -73 0 -3 48 c-3 44 -5 47 -33 50 -16 2 -38 -3
-48 -11 -16 -11 -17 -18 -8 -53 9 -32 22 -48 71 -83 103 -72 131 -126 145
-284 l6 -68 -37 -15 c-20 -9 -66 -23 -102 -32 -57 -14 -69 -14 -106 -1 -58 20
-86 72 -86 162 l0 67 58 0 c80 0 86 -6 79 -74 -6 -61 -6 -61 52 -50 30 6 31 9
31 56 0 84 -47 148 -144 194 -31 15 -40 28 -66 97 -17 43 -28 87 -25 97 8 25
61 69 110 91 54 25 112 24 165 -3z m610 -32 l0 -53 -70 5 -70 5 -1 -34 c0 -19
-2 -55 -5 -81 -5 -52 1 -57 50 -38 25 9 26 8 26 -33 l0 -43 -40 4 -40 4 0 -66
0 -66 49 0 c27 0 61 4 75 10 l26 10 0 -59 0 -59 -36 8 c-19 5 -78 11 -130 15
-59 5 -94 12 -94 19 0 6 7 32 15 58 7 26 17 85 21 131 6 83 6 84 -17 90 -13 4
-45 7 -71 7 l-48 0 0 -80 c0 -86 3 -90 54 -70 25 9 26 8 26 -33 l0 -43 -40 4
-40 4 0 -67 0 -68 75 6 75 5 0 -55 c0 -48 -2 -54 -17 -48 -10 3 -70 11 -134
17 l-116 11 18 73 c32 134 33 306 3 413 l-7 24 67 -7 c36 -4 89 -4 116 0 46 6
50 9 50 33 0 14 -4 41 -10 60 l-9 33 72 -5 c40 -4 92 -2 117 2 25 5 48 9 53
10 4 0 7 -23 7 -53z m277 35 c92 -42 130 -170 83 -280 -18 -40 -32 -57 -61
-71 l-37 -19 13 -44 c14 -47 81 -183 114 -231 l20 -29 -47 -22 c-26 -13 -50
-20 -53 -16 -4 3 -12 24 -19 46 -7 22 -34 83 -59 135 l-45 95 -4 -45 c-1 -25
1 -73 6 -105 6 -33 8 -63 5 -67 -2 -4 -34 -7 -71 -5 l-67 2 5 75 c8 117 6 447
-3 528 l-8 72 93 0 c70 0 103 -5 135 -19z"/>
<path d="M1330 958 c0 -24 -3 -73 -7 -110 l-6 -68 54 16 c75 22 98 57 85 130
-10 50 -38 74 -86 74 l-40 0 0 -42z"/>
</g>
</svg>
